<mxfile host="app.diagrams.net" modified="2024-04-15T22:03:02.143Z" agent="Mozilla/5.0 (Windows NT 10.0; Win64; x64; rv:124.0) Gecko/20100101 Firefox/124.0" etag="k1sO07sYzHpBv7jvpL3o" version="24.0.7" type="device">
  <diagram name="Page-1" id="hVEh-ojiq8edPtKPgbWp">
    <mxGraphModel dx="2074" dy="1134" grid="1" gridSize="10" guides="1" tooltips="1" connect="1" arrows="1" fold="1" page="1" pageScale="1" pageWidth="850" pageHeight="1100" math="0" shadow="0">
      <root>
        <mxCell id="0" />
        <mxCell id="1" parent="0" />
        <mxCell id="0JU4S_RnPwN3CJHqBAqy-37" style="edgeStyle=orthogonalEdgeStyle;rounded=0;orthogonalLoop=1;jettySize=auto;html=1;exitX=0.75;exitY=1;exitDx=0;exitDy=0;entryX=0.25;entryY=0;entryDx=0;entryDy=0;" edge="1" parent="1" source="0JU4S_RnPwN3CJHqBAqy-1" target="0JU4S_RnPwN3CJHqBAqy-5">
          <mxGeometry relative="1" as="geometry">
            <Array as="points">
              <mxPoint x="515" y="360" />
              <mxPoint x="560" y="360" />
            </Array>
          </mxGeometry>
        </mxCell>
        <mxCell id="0JU4S_RnPwN3CJHqBAqy-38" style="edgeStyle=orthogonalEdgeStyle;rounded=0;orthogonalLoop=1;jettySize=auto;html=1;exitX=0.25;exitY=1;exitDx=0;exitDy=0;entryX=0.75;entryY=0;entryDx=0;entryDy=0;" edge="1" parent="1" source="0JU4S_RnPwN3CJHqBAqy-1" target="0JU4S_RnPwN3CJHqBAqy-3">
          <mxGeometry relative="1" as="geometry">
            <Array as="points">
              <mxPoint x="455" y="360" />
              <mxPoint x="380" y="360" />
            </Array>
          </mxGeometry>
        </mxCell>
        <mxCell id="0JU4S_RnPwN3CJHqBAqy-41" value="" style="edgeStyle=orthogonalEdgeStyle;rounded=0;orthogonalLoop=1;jettySize=auto;html=1;" edge="1" parent="1" source="0JU4S_RnPwN3CJHqBAqy-1" target="0JU4S_RnPwN3CJHqBAqy-10">
          <mxGeometry relative="1" as="geometry" />
        </mxCell>
        <mxCell id="0JU4S_RnPwN3CJHqBAqy-1" value="Query Interface" style="rounded=0;whiteSpace=wrap;html=1;" vertex="1" parent="1">
          <mxGeometry x="425" y="260" width="120" height="60" as="geometry" />
        </mxCell>
        <mxCell id="0JU4S_RnPwN3CJHqBAqy-33" style="edgeStyle=orthogonalEdgeStyle;rounded=0;orthogonalLoop=1;jettySize=auto;html=1;exitX=1;exitY=0.5;exitDx=0;exitDy=0;entryX=0.5;entryY=0;entryDx=0;entryDy=0;" edge="1" parent="1" source="0JU4S_RnPwN3CJHqBAqy-2" target="0JU4S_RnPwN3CJHqBAqy-4">
          <mxGeometry relative="1" as="geometry" />
        </mxCell>
        <mxCell id="0JU4S_RnPwN3CJHqBAqy-34" style="edgeStyle=orthogonalEdgeStyle;rounded=0;orthogonalLoop=1;jettySize=auto;html=1;entryX=0.5;entryY=0;entryDx=0;entryDy=0;" edge="1" parent="1" source="0JU4S_RnPwN3CJHqBAqy-2" target="0JU4S_RnPwN3CJHqBAqy-1">
          <mxGeometry relative="1" as="geometry" />
        </mxCell>
        <mxCell id="0JU4S_RnPwN3CJHqBAqy-35" style="edgeStyle=orthogonalEdgeStyle;rounded=0;orthogonalLoop=1;jettySize=auto;html=1;exitX=0.5;exitY=1;exitDx=0;exitDy=0;entryX=0.25;entryY=0;entryDx=0;entryDy=0;" edge="1" parent="1" source="0JU4S_RnPwN3CJHqBAqy-2" target="0JU4S_RnPwN3CJHqBAqy-3">
          <mxGeometry relative="1" as="geometry">
            <Array as="points">
              <mxPoint x="230" y="360" />
              <mxPoint x="320" y="360" />
            </Array>
          </mxGeometry>
        </mxCell>
        <mxCell id="0JU4S_RnPwN3CJHqBAqy-2" value="Main Control" style="rounded=0;whiteSpace=wrap;html=1;" vertex="1" parent="1">
          <mxGeometry x="170" y="170" width="120" height="60" as="geometry" />
        </mxCell>
        <mxCell id="0JU4S_RnPwN3CJHqBAqy-21" value="" style="edgeStyle=orthogonalEdgeStyle;rounded=0;orthogonalLoop=1;jettySize=auto;html=1;" edge="1" parent="1" source="0JU4S_RnPwN3CJHqBAqy-3" target="0JU4S_RnPwN3CJHqBAqy-7">
          <mxGeometry relative="1" as="geometry" />
        </mxCell>
        <mxCell id="0JU4S_RnPwN3CJHqBAqy-23" value="" style="edgeStyle=orthogonalEdgeStyle;rounded=0;orthogonalLoop=1;jettySize=auto;html=1;" edge="1" parent="1" source="0JU4S_RnPwN3CJHqBAqy-3" target="0JU4S_RnPwN3CJHqBAqy-5">
          <mxGeometry relative="1" as="geometry" />
        </mxCell>
        <mxCell id="0JU4S_RnPwN3CJHqBAqy-3" value="Flow Field" style="rounded=0;whiteSpace=wrap;html=1;" vertex="1" parent="1">
          <mxGeometry x="290" y="390" width="120" height="60" as="geometry" />
        </mxCell>
        <mxCell id="0JU4S_RnPwN3CJHqBAqy-30" style="edgeStyle=orthogonalEdgeStyle;rounded=0;orthogonalLoop=1;jettySize=auto;html=1;exitX=0.5;exitY=1;exitDx=0;exitDy=0;entryX=0.75;entryY=0;entryDx=0;entryDy=0;" edge="1" parent="1" source="0JU4S_RnPwN3CJHqBAqy-4" target="0JU4S_RnPwN3CJHqBAqy-5">
          <mxGeometry relative="1" as="geometry" />
        </mxCell>
        <mxCell id="0JU4S_RnPwN3CJHqBAqy-4" value="Eddy Profile" style="rounded=0;whiteSpace=wrap;html=1;" vertex="1" parent="1">
          <mxGeometry x="560" y="260" width="120" height="60" as="geometry" />
        </mxCell>
        <mxCell id="0JU4S_RnPwN3CJHqBAqy-40" value="" style="edgeStyle=orthogonalEdgeStyle;rounded=0;orthogonalLoop=1;jettySize=auto;html=1;" edge="1" parent="1" source="0JU4S_RnPwN3CJHqBAqy-5" target="0JU4S_RnPwN3CJHqBAqy-6">
          <mxGeometry relative="1" as="geometry" />
        </mxCell>
        <mxCell id="0JU4S_RnPwN3CJHqBAqy-5" value="File IO" style="rounded=0;whiteSpace=wrap;html=1;" vertex="1" parent="1">
          <mxGeometry x="530" y="390" width="120" height="60" as="geometry" />
        </mxCell>
        <mxCell id="0JU4S_RnPwN3CJHqBAqy-6" value="Hardware Hiding" style="rounded=0;whiteSpace=wrap;html=1;" vertex="1" parent="1">
          <mxGeometry x="530" y="500" width="120" height="60" as="geometry" />
        </mxCell>
        <mxCell id="0JU4S_RnPwN3CJHqBAqy-39" value="" style="edgeStyle=orthogonalEdgeStyle;rounded=0;orthogonalLoop=1;jettySize=auto;html=1;" edge="1" parent="1" source="0JU4S_RnPwN3CJHqBAqy-7" target="0JU4S_RnPwN3CJHqBAqy-8">
          <mxGeometry relative="1" as="geometry" />
        </mxCell>
        <mxCell id="0JU4S_RnPwN3CJHqBAqy-7" value="Eddy" style="rounded=0;whiteSpace=wrap;html=1;" vertex="1" parent="1">
          <mxGeometry x="290" y="490" width="120" height="60" as="geometry" />
        </mxCell>
        <mxCell id="0JU4S_RnPwN3CJHqBAqy-8" value="Shape Function" style="rounded=0;whiteSpace=wrap;html=1;" vertex="1" parent="1">
          <mxGeometry x="290" y="590" width="120" height="60" as="geometry" />
        </mxCell>
        <mxCell id="0JU4S_RnPwN3CJHqBAqy-9" value="Vector" style="rounded=0;whiteSpace=wrap;html=1;" vertex="1" parent="1">
          <mxGeometry x="120" y="590" width="120" height="60" as="geometry" />
        </mxCell>
        <mxCell id="0JU4S_RnPwN3CJHqBAqy-10" value="&lt;div&gt;Visualization&lt;/div&gt;&lt;div&gt;(Placeholder)&lt;br&gt;&lt;/div&gt;" style="rounded=0;whiteSpace=wrap;html=1;" vertex="1" parent="1">
          <mxGeometry x="290" y="260" width="120" height="60" as="geometry" />
        </mxCell>
        <mxCell id="0JU4S_RnPwN3CJHqBAqy-42" value="" style="endArrow=classic;html=1;rounded=0;entryX=0.25;entryY=0;entryDx=0;entryDy=0;" edge="1" parent="1" target="0JU4S_RnPwN3CJHqBAqy-9">
          <mxGeometry width="50" height="50" relative="1" as="geometry">
            <mxPoint x="150" y="560" as="sourcePoint" />
            <mxPoint x="150" y="510" as="targetPoint" />
          </mxGeometry>
        </mxCell>
        <mxCell id="0JU4S_RnPwN3CJHqBAqy-43" value="" style="endArrow=classic;html=1;rounded=0;entryX=0.5;entryY=0;entryDx=0;entryDy=0;" edge="1" parent="1" target="0JU4S_RnPwN3CJHqBAqy-9">
          <mxGeometry width="50" height="50" relative="1" as="geometry">
            <mxPoint x="180" y="560" as="sourcePoint" />
            <mxPoint x="160" y="600" as="targetPoint" />
          </mxGeometry>
        </mxCell>
        <mxCell id="0JU4S_RnPwN3CJHqBAqy-44" value="" style="endArrow=classic;html=1;rounded=0;entryX=0.75;entryY=0;entryDx=0;entryDy=0;" edge="1" parent="1" target="0JU4S_RnPwN3CJHqBAqy-9">
          <mxGeometry width="50" height="50" relative="1" as="geometry">
            <mxPoint x="210" y="560" as="sourcePoint" />
            <mxPoint x="190" y="600" as="targetPoint" />
          </mxGeometry>
        </mxCell>
      </root>
    </mxGraphModel>
  </diagram>
</mxfile>
